<mxfile host="app.diagrams.net" modified="2020-07-27T08:53:42.529Z" agent="5.0 (Windows)" etag="Acm3OClBbe8p0rcX7pQT" version="13.5.3" type="github">
  <diagram name="Page-1" id="42789a77-a242-8287-6e28-9cd8cfd52e62">
    <mxGraphModel dx="2522" dy="1705" grid="1" gridSize="10" guides="1" tooltips="1" connect="1" arrows="1" fold="1" page="1" pageScale="1" pageWidth="1100" pageHeight="850" background="#F1FAEE" math="0" shadow="0">
      <root>
        <mxCell id="0" />
        <mxCell id="1" parent="0" />
        <mxCell id="1ea317790d2ca983-12" style="edgeStyle=none;rounded=1;html=1;labelBackgroundColor=none;startArrow=none;startFill=0;startSize=5;endArrow=classicThin;endFill=1;endSize=5;jettySize=auto;orthogonalLoop=1;strokeColor=#457B9D;strokeWidth=1;fontFamily=Verdana;fontSize=12;fontColor=#1D3557;" parent="1" source="1ea317790d2ca983-1" target="1ea317790d2ca983-2" edge="1">
          <mxGeometry relative="1" as="geometry" />
        </mxCell>
        <mxCell id="1ea317790d2ca983-13" value="relation" style="edgeStyle=none;rounded=1;html=1;labelBackgroundColor=none;startArrow=none;startFill=0;startSize=5;endArrow=classicThin;endFill=1;endSize=5;jettySize=auto;orthogonalLoop=1;strokeColor=#457B9D;strokeWidth=1;fontFamily=Verdana;fontSize=12;fontColor=#1D3557;" parent="1" source="1ea317790d2ca983-1" target="1ea317790d2ca983-9" edge="1">
          <mxGeometry relative="1" as="geometry" />
        </mxCell>
        <mxCell id="1ea317790d2ca983-14" value="relation" style="edgeStyle=none;rounded=1;html=1;labelBackgroundColor=none;startArrow=none;startFill=0;startSize=5;endArrow=classicThin;endFill=1;endSize=5;jettySize=auto;orthogonalLoop=1;strokeColor=#457B9D;strokeWidth=1;fontFamily=Verdana;fontSize=12;fontColor=#1D3557;" parent="1" source="1ea317790d2ca983-1" target="1ea317790d2ca983-3" edge="1">
          <mxGeometry relative="1" as="geometry" />
        </mxCell>
        <mxCell id="1ea317790d2ca983-1" value="Starting&amp;nbsp;&lt;div&gt;node&lt;/div&gt;" style="ellipse;whiteSpace=wrap;html=1;rounded=0;shadow=1;comic=0;labelBackgroundColor=none;strokeWidth=1;fontFamily=Verdana;fontSize=12;align=center;fillColor=#A8DADC;strokeColor=#457B9D;fontColor=#1D3557;" parent="1" vertex="1">
          <mxGeometry x="450" y="80" width="90" height="60" as="geometry" />
        </mxCell>
        <mxCell id="1ea317790d2ca983-21" value="relation" style="edgeStyle=none;rounded=1;html=1;labelBackgroundColor=none;startArrow=none;startFill=0;startSize=5;endArrow=classicThin;endFill=1;endSize=5;jettySize=auto;orthogonalLoop=1;strokeColor=#457B9D;strokeWidth=1;fontFamily=Verdana;fontSize=12;fontColor=#1D3557;" parent="1" source="1ea317790d2ca983-2" target="1ea317790d2ca983-7" edge="1">
          <mxGeometry relative="1" as="geometry" />
        </mxCell>
        <mxCell id="1ea317790d2ca983-22" value="relation" style="edgeStyle=none;rounded=1;html=1;labelBackgroundColor=none;startArrow=none;startFill=0;startSize=5;endArrow=classicThin;endFill=1;endSize=5;jettySize=auto;orthogonalLoop=1;strokeColor=#457B9D;strokeWidth=1;fontFamily=Verdana;fontSize=12;fontColor=#1D3557;" parent="1" source="1ea317790d2ca983-2" target="1ea317790d2ca983-6" edge="1">
          <mxGeometry relative="1" as="geometry" />
        </mxCell>
        <mxCell id="1ea317790d2ca983-2" value="&lt;span&gt;Node 2&lt;/span&gt;" style="ellipse;whiteSpace=wrap;html=1;rounded=0;shadow=1;comic=0;labelBackgroundColor=none;strokeWidth=1;fontFamily=Verdana;fontSize=12;align=center;fillColor=#A8DADC;strokeColor=#457B9D;fontColor=#1D3557;" parent="1" vertex="1">
          <mxGeometry x="457.5" y="190" width="75" height="50" as="geometry" />
        </mxCell>
        <mxCell id="1ea317790d2ca983-15" value="relation" style="edgeStyle=none;rounded=1;html=1;labelBackgroundColor=none;startArrow=none;startFill=0;startSize=5;endArrow=classicThin;endFill=1;endSize=5;jettySize=auto;orthogonalLoop=1;strokeColor=#457B9D;strokeWidth=1;fontFamily=Verdana;fontSize=12;fontColor=#1D3557;" parent="1" source="1ea317790d2ca983-3" target="1ea317790d2ca983-4" edge="1">
          <mxGeometry relative="1" as="geometry" />
        </mxCell>
        <mxCell id="1ea317790d2ca983-3" value="&lt;span&gt;Node 3&lt;/span&gt;" style="ellipse;whiteSpace=wrap;html=1;rounded=0;shadow=1;comic=0;labelBackgroundColor=none;strokeWidth=1;fontFamily=Verdana;fontSize=12;align=center;fillColor=#A8DADC;strokeColor=#457B9D;fontColor=#1D3557;" parent="1" vertex="1">
          <mxGeometry x="700" y="190" width="75" height="50" as="geometry" />
        </mxCell>
        <mxCell id="1ea317790d2ca983-16" value="relation" style="edgeStyle=none;rounded=1;html=1;labelBackgroundColor=none;startArrow=none;startFill=0;startSize=5;endArrow=classicThin;endFill=1;endSize=5;jettySize=auto;orthogonalLoop=1;strokeColor=#457B9D;strokeWidth=1;fontFamily=Verdana;fontSize=12;fontColor=#1D3557;" parent="1" source="1ea317790d2ca983-4" target="1ea317790d2ca983-5" edge="1">
          <mxGeometry relative="1" as="geometry" />
        </mxCell>
        <mxCell id="1ea317790d2ca983-4" value="&lt;span&gt;Node 7&lt;/span&gt;" style="ellipse;whiteSpace=wrap;html=1;rounded=0;shadow=1;comic=0;labelBackgroundColor=none;strokeWidth=1;fontFamily=Verdana;fontSize=12;align=center;fillColor=#A8DADC;strokeColor=#457B9D;fontColor=#1D3557;" parent="1" vertex="1">
          <mxGeometry x="700" y="320" width="75" height="50" as="geometry" />
        </mxCell>
        <mxCell id="1ea317790d2ca983-17" value="relation" style="edgeStyle=none;rounded=1;html=1;labelBackgroundColor=none;startArrow=none;startFill=0;startSize=5;endArrow=classicThin;endFill=1;endSize=5;jettySize=auto;orthogonalLoop=1;strokeColor=#457B9D;strokeWidth=1;fontFamily=Verdana;fontSize=12;fontColor=#1D3557;" parent="1" source="1ea317790d2ca983-5" target="1ea317790d2ca983-8" edge="1">
          <mxGeometry relative="1" as="geometry" />
        </mxCell>
        <mxCell id="1ea317790d2ca983-5" value="&lt;span&gt;Node 9&lt;/span&gt;" style="ellipse;whiteSpace=wrap;html=1;rounded=0;shadow=1;comic=0;labelBackgroundColor=none;strokeWidth=1;fontFamily=Verdana;fontSize=12;align=center;fillColor=#A8DADC;strokeColor=#457B9D;fontColor=#1D3557;" parent="1" vertex="1">
          <mxGeometry x="700" y="470" width="75" height="50" as="geometry" />
        </mxCell>
        <mxCell id="1ea317790d2ca983-23" value="relation" style="edgeStyle=none;rounded=1;html=1;labelBackgroundColor=none;startArrow=none;startFill=0;startSize=5;endArrow=classicThin;endFill=1;endSize=5;jettySize=auto;orthogonalLoop=1;strokeColor=#457B9D;strokeWidth=1;fontFamily=Verdana;fontSize=12;fontColor=#1D3557;" parent="1" source="1ea317790d2ca983-6" target="1ea317790d2ca983-8" edge="1">
          <mxGeometry relative="1" as="geometry" />
        </mxCell>
        <mxCell id="1ea317790d2ca983-6" value="&lt;span&gt;Node 6&lt;/span&gt;" style="ellipse;whiteSpace=wrap;html=1;rounded=0;shadow=1;comic=0;labelBackgroundColor=none;strokeWidth=1;fontFamily=Verdana;fontSize=12;align=center;fillColor=#A8DADC;strokeColor=#457B9D;fontColor=#1D3557;" parent="1" vertex="1">
          <mxGeometry x="550" y="320" width="75" height="50" as="geometry" />
        </mxCell>
        <mxCell id="1ea317790d2ca983-24" value="relation" style="edgeStyle=none;rounded=1;html=1;labelBackgroundColor=none;startArrow=none;startFill=0;startSize=5;endArrow=classicThin;endFill=1;endSize=5;jettySize=auto;orthogonalLoop=1;strokeColor=#457B9D;strokeWidth=1;fontFamily=Verdana;fontSize=12;fontColor=#1D3557;" parent="1" source="1ea317790d2ca983-7" target="1ea317790d2ca983-8" edge="1">
          <mxGeometry relative="1" as="geometry" />
        </mxCell>
        <mxCell id="1ea317790d2ca983-7" value="&lt;span&gt;Node 5&lt;/span&gt;" style="ellipse;whiteSpace=wrap;html=1;rounded=0;shadow=1;comic=0;labelBackgroundColor=none;strokeWidth=1;fontFamily=Verdana;fontSize=12;align=center;fillColor=#A8DADC;strokeColor=#457B9D;fontColor=#1D3557;" parent="1" vertex="1">
          <mxGeometry x="360" y="320" width="75" height="50" as="geometry" />
        </mxCell>
        <mxCell id="1ea317790d2ca983-8" value="End node" style="ellipse;whiteSpace=wrap;html=1;rounded=0;shadow=1;comic=0;labelBackgroundColor=none;strokeWidth=1;fontFamily=Verdana;fontSize=12;align=center;fillColor=#A8DADC;strokeColor=#457B9D;fontColor=#1D3557;" parent="1" vertex="1">
          <mxGeometry x="457.5" y="510" width="75" height="50" as="geometry" />
        </mxCell>
        <mxCell id="1ea317790d2ca983-19" value="relation" style="edgeStyle=none;rounded=1;html=1;labelBackgroundColor=none;startArrow=none;startFill=0;startSize=5;endArrow=classicThin;endFill=1;endSize=5;jettySize=auto;orthogonalLoop=1;strokeColor=#457B9D;strokeWidth=1;fontFamily=Verdana;fontSize=12;fontColor=#1D3557;" parent="1" source="1ea317790d2ca983-9" target="1ea317790d2ca983-10" edge="1">
          <mxGeometry relative="1" as="geometry" />
        </mxCell>
        <mxCell id="1ea317790d2ca983-9" value="Node 1" style="ellipse;whiteSpace=wrap;html=1;rounded=0;shadow=1;comic=0;labelBackgroundColor=none;strokeWidth=1;fontFamily=Verdana;fontSize=12;align=center;fillColor=#A8DADC;strokeColor=#457B9D;fontColor=#1D3557;" parent="1" vertex="1">
          <mxGeometry x="210" y="190" width="75" height="50" as="geometry" />
        </mxCell>
        <mxCell id="1ea317790d2ca983-20" value="relation" style="edgeStyle=none;rounded=1;html=1;labelBackgroundColor=none;startArrow=none;startFill=0;startSize=5;endArrow=classicThin;endFill=1;endSize=5;jettySize=auto;orthogonalLoop=1;strokeColor=#457B9D;strokeWidth=1;fontFamily=Verdana;fontSize=12;fontColor=#1D3557;" parent="1" source="1ea317790d2ca983-10" target="1ea317790d2ca983-11" edge="1">
          <mxGeometry relative="1" as="geometry" />
        </mxCell>
        <mxCell id="1ea317790d2ca983-10" value="&lt;span&gt;Node 4&lt;/span&gt;" style="ellipse;whiteSpace=wrap;html=1;rounded=0;shadow=1;comic=0;labelBackgroundColor=none;strokeWidth=1;fontFamily=Verdana;fontSize=12;align=center;fillColor=#A8DADC;strokeColor=#457B9D;fontColor=#1D3557;" parent="1" vertex="1">
          <mxGeometry x="210" y="320" width="75" height="50" as="geometry" />
        </mxCell>
        <mxCell id="1ea317790d2ca983-18" value="relation" style="edgeStyle=none;rounded=1;html=1;labelBackgroundColor=none;startArrow=none;startFill=0;startSize=5;endArrow=classicThin;endFill=1;endSize=5;jettySize=auto;orthogonalLoop=1;strokeColor=#457B9D;strokeWidth=1;fontFamily=Verdana;fontSize=12;fontColor=#1D3557;" parent="1" source="1ea317790d2ca983-11" target="1ea317790d2ca983-8" edge="1">
          <mxGeometry relative="1" as="geometry" />
        </mxCell>
        <mxCell id="1ea317790d2ca983-11" value="&lt;span&gt;Node 8&lt;/span&gt;" style="ellipse;whiteSpace=wrap;html=1;rounded=0;shadow=1;comic=0;labelBackgroundColor=none;strokeWidth=1;fontFamily=Verdana;fontSize=12;align=center;fillColor=#A8DADC;strokeColor=#457B9D;fontColor=#1D3557;" parent="1" vertex="1">
          <mxGeometry x="210" y="470" width="75" height="50" as="geometry" />
        </mxCell>
        <mxCell id="1q58vJU3FzAGv_SneIFp-2" value="" style="rounded=0;whiteSpace=wrap;html=1;fillColor=#A8DADC;strokeColor=#457B9D;fontColor=#1D3557;" vertex="1" parent="1">
          <mxGeometry x="890" y="80" width="120" height="50" as="geometry" />
        </mxCell>
        <mxCell id="1q58vJU3FzAGv_SneIFp-3" value="" style="endArrow=classic;html=1;strokeColor=#457B9D;fontColor=#1D3557;labelBackgroundColor=#F1FAEE;" edge="1" parent="1">
          <mxGeometry width="50" height="50" relative="1" as="geometry">
            <mxPoint x="520" y="460" as="sourcePoint" />
            <mxPoint x="570" y="410" as="targetPoint" />
          </mxGeometry>
        </mxCell>
        <mxCell id="1q58vJU3FzAGv_SneIFp-4" value="" style="endArrow=classic;html=1;strokeColor=#457B9D;fontColor=#1D3557;labelBackgroundColor=#F1FAEE;" edge="1" parent="1">
          <mxGeometry width="50" height="50" relative="1" as="geometry">
            <mxPoint x="520" y="460" as="sourcePoint" />
            <mxPoint x="570" y="410" as="targetPoint" />
          </mxGeometry>
        </mxCell>
        <mxCell id="1q58vJU3FzAGv_SneIFp-5" value="" style="endArrow=classic;html=1;exitX=0.5;exitY=1;exitDx=0;exitDy=0;strokeColor=#457B9D;fontColor=#1D3557;labelBackgroundColor=#F1FAEE;" edge="1" parent="1" source="1q58vJU3FzAGv_SneIFp-2">
          <mxGeometry width="50" height="50" relative="1" as="geometry">
            <mxPoint x="940" y="200" as="sourcePoint" />
            <mxPoint x="950" y="280" as="targetPoint" />
          </mxGeometry>
        </mxCell>
        <mxCell id="1q58vJU3FzAGv_SneIFp-8" value="服务器" style="rounded=0;whiteSpace=wrap;html=1;fillColor=#A8DADC;strokeColor=#457B9D;fontColor=#1D3557;" vertex="1" parent="1">
          <mxGeometry x="-600" y="-800" width="120" height="60" as="geometry" />
        </mxCell>
        <mxCell id="1q58vJU3FzAGv_SneIFp-9" value="" style="endArrow=classic;html=1;entryX=0.658;entryY=0;entryDx=0;entryDy=0;entryPerimeter=0;strokeColor=#457B9D;fontColor=#1D3557;labelBackgroundColor=#F1FAEE;" edge="1" parent="1" target="1q58vJU3FzAGv_SneIFp-10">
          <mxGeometry width="50" height="50" relative="1" as="geometry">
            <mxPoint x="-521" y="-740" as="sourcePoint" />
            <mxPoint x="-710" y="-680" as="targetPoint" />
          </mxGeometry>
        </mxCell>
        <mxCell id="1q58vJU3FzAGv_SneIFp-10" value="注册中心（consul）" style="rounded=0;whiteSpace=wrap;html=1;fillColor=#A8DADC;strokeColor=#457B9D;fontColor=#1D3557;" vertex="1" parent="1">
          <mxGeometry x="-600" y="-540" width="120" height="60" as="geometry" />
        </mxCell>
        <mxCell id="1q58vJU3FzAGv_SneIFp-11" value="" style="endArrow=classic;html=1;exitX=0.342;exitY=-0.067;exitDx=0;exitDy=0;exitPerimeter=0;strokeColor=#457B9D;fontColor=#1D3557;labelBackgroundColor=#F1FAEE;" edge="1" parent="1" source="1q58vJU3FzAGv_SneIFp-10">
          <mxGeometry width="50" height="50" relative="1" as="geometry">
            <mxPoint x="-560" y="-670" as="sourcePoint" />
            <mxPoint x="-560" y="-740" as="targetPoint" />
          </mxGeometry>
        </mxCell>
        <mxCell id="1q58vJU3FzAGv_SneIFp-13" value="" style="rounded=0;whiteSpace=wrap;html=1;fillColor=#A8DADC;strokeColor=#457B9D;fontColor=#1D3557;" vertex="1" parent="1">
          <mxGeometry x="-760" y="-377" width="470" height="350" as="geometry" />
        </mxCell>
        <mxCell id="1q58vJU3FzAGv_SneIFp-29" value="" style="endArrow=classic;html=1;strokeColor=#457B9D;fontColor=#1D3557;labelBackgroundColor=#F1FAEE;" edge="1" parent="1">
          <mxGeometry width="50" height="50" relative="1" as="geometry">
            <mxPoint x="-561" y="-380" as="sourcePoint" />
            <mxPoint x="-561" y="-480" as="targetPoint" />
          </mxGeometry>
        </mxCell>
        <mxCell id="1q58vJU3FzAGv_SneIFp-30" value="" style="endArrow=classic;html=1;strokeColor=#457B9D;fontColor=#1D3557;labelBackgroundColor=#F1FAEE;" edge="1" parent="1">
          <mxGeometry width="50" height="50" relative="1" as="geometry">
            <mxPoint x="-505" y="-480" as="sourcePoint" />
            <mxPoint x="-505" y="-380" as="targetPoint" />
          </mxGeometry>
        </mxCell>
        <mxCell id="1q58vJU3FzAGv_SneIFp-31" value="客户" style="rounded=0;whiteSpace=wrap;html=1;fillColor=#A8DADC;strokeColor=#457B9D;fontColor=#1D3557;" vertex="1" parent="1">
          <mxGeometry x="-950" y="-800" width="120" height="60" as="geometry" />
        </mxCell>
        <mxCell id="1q58vJU3FzAGv_SneIFp-32" value="" style="endArrow=classic;html=1;entryX=0;entryY=0.5;entryDx=0;entryDy=0;exitX=1;exitY=0.5;exitDx=0;exitDy=0;strokeColor=#457B9D;fontColor=#1D3557;labelBackgroundColor=#F1FAEE;" edge="1" parent="1">
          <mxGeometry width="50" height="50" relative="1" as="geometry">
            <mxPoint x="-830" y="-786" as="sourcePoint" />
            <mxPoint x="-600" y="-786" as="targetPoint" />
          </mxGeometry>
        </mxCell>
        <mxCell id="1q58vJU3FzAGv_SneIFp-35" value="" style="endArrow=classic;startArrow=classic;html=1;exitX=1;exitY=0.5;exitDx=0;exitDy=0;entryX=0.943;entryY=-0.004;entryDx=0;entryDy=0;entryPerimeter=0;edgeStyle=orthogonalEdgeStyle;strokeColor=#457B9D;fontColor=#1D3557;labelBackgroundColor=#F1FAEE;" edge="1" parent="1" source="1q58vJU3FzAGv_SneIFp-8" target="1q58vJU3FzAGv_SneIFp-13">
          <mxGeometry width="50" height="50" relative="1" as="geometry">
            <mxPoint x="-420" y="-750" as="sourcePoint" />
            <mxPoint x="-370" y="-800" as="targetPoint" />
          </mxGeometry>
        </mxCell>
        <mxCell id="1q58vJU3FzAGv_SneIFp-36" value="第一步" style="text;html=1;strokeColor=none;fillColor=none;align=center;verticalAlign=middle;whiteSpace=wrap;rounded=0;fontColor=#1D3557;" vertex="1" parent="1">
          <mxGeometry x="-600" y="-435" width="40" height="20" as="geometry" />
        </mxCell>
        <mxCell id="1q58vJU3FzAGv_SneIFp-37" value="第二步" style="text;html=1;strokeColor=none;fillColor=none;align=center;verticalAlign=middle;whiteSpace=wrap;rounded=0;fontColor=#1D3557;" vertex="1" parent="1">
          <mxGeometry x="-760" y="-811" width="40" height="20" as="geometry" />
        </mxCell>
        <mxCell id="1q58vJU3FzAGv_SneIFp-38" value="第三步" style="text;html=1;strokeColor=none;fillColor=none;align=center;verticalAlign=middle;whiteSpace=wrap;rounded=0;fontColor=#1D3557;" vertex="1" parent="1">
          <mxGeometry x="-513" y="-670" width="40" height="20" as="geometry" />
        </mxCell>
        <mxCell id="1q58vJU3FzAGv_SneIFp-39" value="第四步" style="text;html=1;strokeColor=none;fillColor=none;align=center;verticalAlign=middle;whiteSpace=wrap;rounded=0;fontColor=#1D3557;" vertex="1" parent="1">
          <mxGeometry x="-610" y="-670" width="40" height="20" as="geometry" />
        </mxCell>
        <mxCell id="1q58vJU3FzAGv_SneIFp-40" value="&lt;div&gt;第五，六步&lt;/div&gt;" style="text;html=1;strokeColor=none;fillColor=none;align=center;verticalAlign=middle;whiteSpace=wrap;rounded=0;fontColor=#1D3557;" vertex="1" parent="1">
          <mxGeometry x="-300" y="-660" width="80" height="20" as="geometry" />
        </mxCell>
        <mxCell id="1q58vJU3FzAGv_SneIFp-41" value="" style="endArrow=classic;html=1;entryX=1;entryY=0.75;entryDx=0;entryDy=0;exitX=0;exitY=0.75;exitDx=0;exitDy=0;strokeColor=#457B9D;fontColor=#1D3557;labelBackgroundColor=#F1FAEE;" edge="1" parent="1">
          <mxGeometry width="50" height="50" relative="1" as="geometry">
            <mxPoint x="-600" y="-757" as="sourcePoint" />
            <mxPoint x="-830" y="-757" as="targetPoint" />
          </mxGeometry>
        </mxCell>
        <mxCell id="1q58vJU3FzAGv_SneIFp-42" value="第7步" style="text;html=1;strokeColor=none;fillColor=none;align=center;verticalAlign=middle;whiteSpace=wrap;rounded=0;fontColor=#1D3557;" vertex="1" parent="1">
          <mxGeometry x="-760" y="-750" width="40" height="20" as="geometry" />
        </mxCell>
        <mxCell id="1q58vJU3FzAGv_SneIFp-43" value="循环检测" style="text;html=1;strokeColor=none;fillColor=none;align=center;verticalAlign=middle;whiteSpace=wrap;rounded=0;fontColor=#1D3557;" vertex="1" parent="1">
          <mxGeometry x="-500" y="-445" width="50" height="15" as="geometry" />
        </mxCell>
        <mxCell id="1q58vJU3FzAGv_SneIFp-44" value="" style="shape=cube;whiteSpace=wrap;html=1;boundedLbl=1;backgroundOutline=1;darkOpacity=0.05;darkOpacity2=0.1;fillColor=#A8DADC;strokeColor=#457B9D;fontColor=#1D3557;" vertex="1" parent="1">
          <mxGeometry x="-708" y="-328" width="70" height="50" as="geometry" />
        </mxCell>
        <mxCell id="1q58vJU3FzAGv_SneIFp-45" value="" style="shape=cube;whiteSpace=wrap;html=1;boundedLbl=1;backgroundOutline=1;darkOpacity=0.05;darkOpacity2=0.1;fillColor=#A8DADC;strokeColor=#457B9D;fontColor=#1D3557;" vertex="1" parent="1">
          <mxGeometry x="-561" y="-328" width="70" height="50" as="geometry" />
        </mxCell>
        <mxCell id="1q58vJU3FzAGv_SneIFp-46" value="" style="shape=cube;whiteSpace=wrap;html=1;boundedLbl=1;backgroundOutline=1;darkOpacity=0.05;darkOpacity2=0.1;fillColor=#A8DADC;strokeColor=#457B9D;fontColor=#1D3557;" vertex="1" parent="1">
          <mxGeometry x="-408" y="-328" width="70" height="50" as="geometry" />
        </mxCell>
        <mxCell id="1q58vJU3FzAGv_SneIFp-47" value="产品" style="text;html=1;strokeColor=none;fillColor=none;align=center;verticalAlign=middle;whiteSpace=wrap;rounded=0;fontColor=#1D3557;" vertex="1" parent="1">
          <mxGeometry x="-681.5" y="-298" width="40" height="20" as="geometry" />
        </mxCell>
        <mxCell id="1q58vJU3FzAGv_SneIFp-48" value="产品" style="text;html=1;strokeColor=none;fillColor=none;align=center;verticalAlign=middle;whiteSpace=wrap;rounded=0;fontColor=#1D3557;" vertex="1" parent="1">
          <mxGeometry x="-531" y="-298" width="40" height="20" as="geometry" />
        </mxCell>
        <mxCell id="1q58vJU3FzAGv_SneIFp-49" value="产品" style="text;html=1;strokeColor=none;fillColor=none;align=center;verticalAlign=middle;whiteSpace=wrap;rounded=0;fontColor=#1D3557;" vertex="1" parent="1">
          <mxGeometry x="-378" y="-298" width="40" height="20" as="geometry" />
        </mxCell>
        <mxCell id="1q58vJU3FzAGv_SneIFp-50" value="" style="shape=cube;whiteSpace=wrap;html=1;boundedLbl=1;backgroundOutline=1;darkOpacity=0.05;darkOpacity2=0.1;fillColor=#A8DADC;strokeColor=#457B9D;fontColor=#1D3557;" vertex="1" parent="1">
          <mxGeometry x="-699.5" y="-248" width="70" height="50" as="geometry" />
        </mxCell>
        <mxCell id="1q58vJU3FzAGv_SneIFp-51" value="" style="shape=cube;whiteSpace=wrap;html=1;boundedLbl=1;backgroundOutline=1;darkOpacity=0.05;darkOpacity2=0.1;fillColor=#A8DADC;strokeColor=#457B9D;fontColor=#1D3557;" vertex="1" parent="1">
          <mxGeometry x="-552.5" y="-248" width="70" height="50" as="geometry" />
        </mxCell>
        <mxCell id="1q58vJU3FzAGv_SneIFp-52" value="" style="shape=cube;whiteSpace=wrap;html=1;boundedLbl=1;backgroundOutline=1;darkOpacity=0.05;darkOpacity2=0.1;fillColor=#A8DADC;strokeColor=#457B9D;fontColor=#1D3557;" vertex="1" parent="1">
          <mxGeometry x="-399.5" y="-248" width="70" height="50" as="geometry" />
        </mxCell>
        <mxCell id="1q58vJU3FzAGv_SneIFp-53" value="订单" style="text;html=1;strokeColor=none;fillColor=none;align=center;verticalAlign=middle;whiteSpace=wrap;rounded=0;fontColor=#1D3557;" vertex="1" parent="1">
          <mxGeometry x="-673" y="-218" width="40" height="20" as="geometry" />
        </mxCell>
        <mxCell id="1q58vJU3FzAGv_SneIFp-54" value="订单" style="text;html=1;strokeColor=none;fillColor=none;align=center;verticalAlign=middle;whiteSpace=wrap;rounded=0;fontColor=#1D3557;" vertex="1" parent="1">
          <mxGeometry x="-522.5" y="-218" width="40" height="20" as="geometry" />
        </mxCell>
        <mxCell id="1q58vJU3FzAGv_SneIFp-55" value="订单" style="text;html=1;strokeColor=none;fillColor=none;align=center;verticalAlign=middle;whiteSpace=wrap;rounded=0;fontColor=#1D3557;" vertex="1" parent="1">
          <mxGeometry x="-369.5" y="-218" width="40" height="20" as="geometry" />
        </mxCell>
        <mxCell id="1q58vJU3FzAGv_SneIFp-56" value="" style="shape=cube;whiteSpace=wrap;html=1;boundedLbl=1;backgroundOutline=1;darkOpacity=0.05;darkOpacity2=0.1;fillColor=#A8DADC;strokeColor=#457B9D;fontColor=#1D3557;" vertex="1" parent="1">
          <mxGeometry x="-696" y="-175" width="70" height="50" as="geometry" />
        </mxCell>
        <mxCell id="1q58vJU3FzAGv_SneIFp-57" value="" style="shape=cube;whiteSpace=wrap;html=1;boundedLbl=1;backgroundOutline=1;darkOpacity=0.05;darkOpacity2=0.1;fillColor=#A8DADC;strokeColor=#457B9D;fontColor=#1D3557;" vertex="1" parent="1">
          <mxGeometry x="-549" y="-175" width="70" height="50" as="geometry" />
        </mxCell>
        <mxCell id="1q58vJU3FzAGv_SneIFp-58" value="" style="shape=cube;whiteSpace=wrap;html=1;boundedLbl=1;backgroundOutline=1;darkOpacity=0.05;darkOpacity2=0.1;fillColor=#A8DADC;strokeColor=#457B9D;fontColor=#1D3557;" vertex="1" parent="1">
          <mxGeometry x="-396" y="-175" width="70" height="50" as="geometry" />
        </mxCell>
        <mxCell id="1q58vJU3FzAGv_SneIFp-59" value="会员" style="text;html=1;strokeColor=none;fillColor=none;align=center;verticalAlign=middle;whiteSpace=wrap;rounded=0;fontColor=#1D3557;" vertex="1" parent="1">
          <mxGeometry x="-669.5" y="-145" width="40" height="20" as="geometry" />
        </mxCell>
        <mxCell id="1q58vJU3FzAGv_SneIFp-60" value="会员" style="text;html=1;strokeColor=none;fillColor=none;align=center;verticalAlign=middle;whiteSpace=wrap;rounded=0;fontColor=#1D3557;" vertex="1" parent="1">
          <mxGeometry x="-519" y="-145" width="40" height="20" as="geometry" />
        </mxCell>
        <mxCell id="1q58vJU3FzAGv_SneIFp-61" value="会员" style="text;html=1;strokeColor=none;fillColor=none;align=center;verticalAlign=middle;whiteSpace=wrap;rounded=0;fontColor=#1D3557;" vertex="1" parent="1">
          <mxGeometry x="-366" y="-145" width="40" height="20" as="geometry" />
        </mxCell>
        <mxCell id="1q58vJU3FzAGv_SneIFp-63" value="&lt;div style=&quot;font-size: 14px&quot;&gt;&lt;b&gt;&lt;font style=&quot;font-size: 14px&quot;&gt;分布式服务器集群&lt;/font&gt;&lt;/b&gt;&lt;/div&gt;" style="text;html=1;strokeColor=none;fillColor=none;align=center;verticalAlign=middle;whiteSpace=wrap;rounded=0;fontColor=#1D3557;" vertex="1" parent="1">
          <mxGeometry x="-585" y="-360" width="120" height="20" as="geometry" />
        </mxCell>
        <mxCell id="1q58vJU3FzAGv_SneIFp-64" value="" style="shape=cube;whiteSpace=wrap;html=1;boundedLbl=1;backgroundOutline=1;darkOpacity=0.05;darkOpacity2=0.1;fillColor=#A8DADC;strokeColor=#457B9D;fontColor=#1D3557;" vertex="1" parent="1">
          <mxGeometry x="-687.5" y="-100" width="70" height="50" as="geometry" />
        </mxCell>
        <mxCell id="1q58vJU3FzAGv_SneIFp-65" value="" style="shape=cube;whiteSpace=wrap;html=1;boundedLbl=1;backgroundOutline=1;darkOpacity=0.05;darkOpacity2=0.1;fillColor=#A8DADC;strokeColor=#457B9D;fontColor=#1D3557;" vertex="1" parent="1">
          <mxGeometry x="-540.5" y="-100" width="70" height="50" as="geometry" />
        </mxCell>
        <mxCell id="1q58vJU3FzAGv_SneIFp-66" value="" style="shape=cube;whiteSpace=wrap;html=1;boundedLbl=1;backgroundOutline=1;darkOpacity=0.05;darkOpacity2=0.1;fillColor=#A8DADC;strokeColor=#457B9D;fontColor=#1D3557;" vertex="1" parent="1">
          <mxGeometry x="-387.5" y="-100" width="70" height="50" as="geometry" />
        </mxCell>
        <mxCell id="1q58vJU3FzAGv_SneIFp-67" value="缓存" style="text;html=1;strokeColor=none;fillColor=none;align=center;verticalAlign=middle;whiteSpace=wrap;rounded=0;fontColor=#1D3557;" vertex="1" parent="1">
          <mxGeometry x="-661" y="-70" width="40" height="20" as="geometry" />
        </mxCell>
        <mxCell id="1q58vJU3FzAGv_SneIFp-68" value="缓存" style="text;html=1;strokeColor=none;fillColor=none;align=center;verticalAlign=middle;whiteSpace=wrap;rounded=0;fontColor=#1D3557;" vertex="1" parent="1">
          <mxGeometry x="-510.5" y="-70" width="40" height="20" as="geometry" />
        </mxCell>
        <mxCell id="1q58vJU3FzAGv_SneIFp-69" value="&lt;div&gt;缓存&lt;/div&gt;" style="text;html=1;strokeColor=none;fillColor=none;align=center;verticalAlign=middle;whiteSpace=wrap;rounded=0;fontColor=#1D3557;" vertex="1" parent="1">
          <mxGeometry x="-357.5" y="-70" width="40" height="20" as="geometry" />
        </mxCell>
      </root>
    </mxGraphModel>
  </diagram>
</mxfile>
